<svg width="81" height="80" viewBox="0 0 81 80" fill="none" xmlns="http://www.w3.org/2000/svg">
<circle cx="40.393" cy="39.893" r="39.893" fill="#26C485" fill-opacity="0.1"/>
<circle cx="40.3927" cy="39.8932" r="32.8643" fill="#26C485"/>
<path d="M36.501 55.0645C35.4485 55.0647 34.4408 54.6383 33.708 53.8827L21.0576 40.8497C20.073 39.8549 19.6983 38.408 20.0764 37.0603C20.4545 35.7127 21.5271 34.6719 22.8855 34.3344C24.2438 33.9969 25.6788 34.4148 26.6436 35.4288L36.4028 45.4827L54.0549 26.0045C55.5063 24.4487 57.9379 24.3464 59.5149 25.7746C61.0919 27.2029 61.2301 29.6326 59.8254 31.2305L39.3906 53.7888C38.6662 54.586 37.6441 55.0478 36.5671 55.0645H36.501Z" fill="white"/>
</svg>
