<svg width="90" height="37" viewBox="0 0 90 37" fill="none" xmlns="http://www.w3.org/2000/svg">
<path d="M6.388 1.728V27H0.232V1.728H6.388ZM23.0892 6.696C25.4412 6.696 27.3132 7.464 28.7052 9C30.1212 10.512 30.8292 12.6 30.8292 15.264V27H24.7092V16.092C24.7092 14.748 24.3612 13.704 23.6652 12.96C22.9692 12.216 22.0332 11.844 20.8572 11.844C19.6812 11.844 18.7452 12.216 18.0492 12.96C17.3532 13.704 17.0052 14.748 17.0052 16.092V27H10.8492V6.912H17.0052V9.576C17.6292 8.688 18.4692 7.992 19.5252 7.488C20.5812 6.96 21.7692 6.696 23.0892 6.696ZM65.6966 0.36V27H59.5406V0.36H65.6966ZM79.3018 27.288C77.3338 27.288 75.5578 26.868 73.9738 26.028C72.4138 25.188 71.1778 23.988 70.2658 22.428C69.3778 20.868 68.9338 19.044 68.9338 16.956C68.9338 14.892 69.3898 13.08 70.3018 11.52C71.2138 9.936 72.4618 8.724 74.0458 7.884C75.6298 7.044 77.4058 6.624 79.3738 6.624C81.3418 6.624 83.1178 7.044 84.7018 7.884C86.2858 8.724 87.5338 9.936 88.4458 11.52C89.3578 13.08 89.8138 14.892 89.8138 16.956C89.8138 19.02 89.3458 20.844 88.4098 22.428C87.4978 23.988 86.2378 25.188 84.6298 26.028C83.0458 26.868 81.2698 27.288 79.3018 27.288ZM79.3018 21.96C80.4778 21.96 81.4738 21.528 82.2898 20.664C83.1298 19.8 83.5498 18.564 83.5498 16.956C83.5498 15.348 83.1418 14.112 82.3258 13.248C81.5338 12.384 80.5498 11.952 79.3738 11.952C78.1738 11.952 77.1778 12.384 76.3858 13.248C75.5938 14.088 75.1978 15.324 75.1978 16.956C75.1978 18.564 75.5818 19.8 76.3498 20.664C77.1418 21.528 78.1258 21.96 79.3018 21.96Z" fill="#F0F0F0"/>
<path d="M33.883 16.992C33.883 15 34.291 13.224 35.107 11.664C35.947 10.104 37.063 8.892 38.455 8.028C39.871 7.14 41.407 6.696 43.063 6.696C44.335 6.696 45.475 6.924 46.483 7.38C47.491 7.812 48.307 8.424 48.931 9.216V6.912H55.087V36.576H48.931V24.48C48.235 25.32 47.383 25.992 46.375 26.496C45.391 27 44.263 27.252 42.991 27.252C41.359 27.252 39.847 26.82 38.455 25.956C37.063 25.092 35.947 23.88 35.107 22.32C34.291 20.76 33.883 18.984 33.883 16.992ZM48.931 16.956C48.931 15.876 48.715 14.976 48.283 14.256C47.875 13.512 47.335 12.96 46.663 12.6C45.991 12.216 45.283 12.024 44.539 12.024C43.819 12.024 43.123 12.216 42.451 12.6C41.779 12.96 41.227 13.512 40.795 14.256C40.363 15 40.147 15.912 40.147 16.992C40.147 18.072 40.363 18.984 40.795 19.728C41.227 20.448 41.779 21 42.451 21.384C43.123 21.744 43.819 21.924 44.539 21.924C45.259 21.924 45.955 21.744 46.627 21.384C47.323 21 47.875 20.436 48.283 19.692C48.715 18.948 48.931 18.036 48.931 16.956Z" fill="#42A5F5"/>
</svg>
